# Blender v2.92.0 OBJ File: 'frisbee.blend'
# www.blender.org
mtllib frisbee.mtl
o Cube
v 0.500000 0.078238 0.866026
v 0.866025 0.078238 0.500000
v 0.528957 0.051602 0.916180
v 0.916180 0.051602 0.528957
v 0.541864 0.016368 0.938536
v 0.938536 0.016368 0.541865
v 0.544218 -0.016663 0.942614
v 0.942614 -0.016663 0.544219
v 0.544218 -0.049407 0.942614
v 0.942614 -0.049407 0.544219
v 0.255757 0.009253 0.954500
v 0.255757 -0.037745 0.954500
v 0.534187 -0.067107 0.925239
v 0.925239 -0.067107 0.534187
v 0.263684 -0.067107 0.984084
v 0.279044 -0.067107 1.041406
v 0.284284 -0.049407 1.060963
v 0.284284 -0.016663 1.060963
v 0.283054 0.016368 1.056373
v 0.276312 0.051602 1.031209
v 0.261185 0.078238 0.974758
v 0.954500 0.009253 0.255758
v 0.504784 -0.067107 0.874312
v 0.874311 -0.067107 0.504784
v 0.954500 -0.037745 0.255758
v 0.984084 -0.067107 0.263685
v 1.041406 -0.067107 0.279044
v 1.060963 -0.049407 0.284285
v 1.060963 -0.016663 0.284285
v 1.056373 0.016368 0.283055
v 1.031209 0.051602 0.276312
v 0.974758 0.078238 0.261186
v 0.489608 -0.037745 0.848027
v 0.848027 -0.037745 0.489609
v 0.698742 0.009253 0.698742
v 0.698742 -0.037745 0.698742
v 0.720400 -0.067107 0.720400
v 0.762362 -0.067107 0.762362
v 0.776678 -0.049407 0.776679
v 0.776678 -0.016663 0.776679
v 0.773318 0.016368 0.773319
v 0.754898 0.051602 0.754898
v 0.489608 0.009253 0.848027
v 0.848027 0.009253 0.489609
v 0.713572 0.078238 0.713573
v 0.000000 0.078238 1.000000
v -0.500000 0.078238 0.866026
v -0.866025 0.078238 0.500000
v 0.000000 0.051602 1.057913
v -0.528957 0.051602 0.916180
v -0.916180 0.051602 0.528957
v 0.000000 0.016368 1.083728
v -0.541864 0.016368 0.938536
v -0.938536 0.016368 0.541865
v 0.000000 -0.016663 1.088437
v -0.544218 -0.016663 0.942614
v -0.942614 -0.016663 0.544219
v 0.000000 -0.049407 1.088437
v -0.544218 -0.049407 0.942614
v -0.942614 -0.049407 0.544219
v -0.255757 0.009253 0.954500
v -0.255757 -0.037745 0.954500
v 0.000000 -0.067107 1.068374
v -0.534187 -0.067107 0.925239
v -0.925239 -0.067107 0.534187
v -0.263684 -0.067107 0.984084
v -0.279044 -0.067107 1.041406
v -0.284284 -0.049407 1.060963
v -0.284284 -0.016663 1.060963
v -0.283054 0.016368 1.056373
v -0.276312 0.051602 1.031209
v -0.261185 0.078238 0.974758
v -0.954500 0.009253 0.255758
v 0.000000 -0.067107 1.009568
v -0.504784 -0.067107 0.874312
v -0.874311 -0.067107 0.504784
v -0.954500 -0.037745 0.255758
v -0.984084 -0.067107 0.263685
v -1.041406 -0.067107 0.279044
v -1.060963 -0.049407 0.284285
v -1.060963 -0.016663 0.284285
v -1.056373 0.016368 0.283055
v -1.031209 0.051602 0.276312
v -0.974758 0.078238 0.261186
v 0.000000 -0.037745 0.979217
v -0.489608 -0.037745 0.848027
v -0.848027 -0.037745 0.489609
v -0.698742 0.009253 0.698742
v -0.698742 -0.037745 0.698742
v -0.720400 -0.067107 0.720400
v -0.762362 -0.067107 0.762362
v -0.776678 -0.049407 0.776679
v -0.776678 -0.016663 0.776679
v -0.773318 0.016368 0.773319
v -0.754898 0.051602 0.754898
v 0.000000 0.009253 0.979217
v -0.489608 0.009253 0.848027
v -0.848027 0.009253 0.489609
v -0.713572 0.078238 0.713573
v 0.500000 0.078238 -0.866026
v 0.866025 0.078238 -0.500000
v 1.000000 0.078238 0.000000
v 0.528957 0.051602 -0.916180
v 0.916180 0.051602 -0.528957
v 1.057913 0.051602 0.000000
v 0.541864 0.016368 -0.938536
v 0.938536 0.016368 -0.541865
v 1.083728 0.016368 0.000000
v 0.544218 -0.016663 -0.942614
v 0.942614 -0.016663 -0.544219
v 1.088437 -0.016663 0.000000
v 0.544218 -0.049407 -0.942614
v 0.942614 -0.049407 -0.544219
v 1.088437 -0.049407 0.000000
v 0.255757 0.009253 -0.954500
v 0.255757 -0.037745 -0.954500
v 0.534187 -0.067107 -0.925239
v 0.925239 -0.067107 -0.534187
v 1.068374 -0.067107 0.000000
v 0.263684 -0.067107 -0.984084
v 0.279044 -0.067107 -1.041406
v 0.284284 -0.049407 -1.060963
v 0.284284 -0.016663 -1.060963
v 0.283054 0.016368 -1.056373
v 0.276312 0.051602 -1.031209
v 0.261185 0.078238 -0.974758
v 0.954500 0.009253 -0.255758
v 0.504784 -0.067107 -0.874312
v 0.874311 -0.067107 -0.504784
v 1.009568 -0.067107 0.000000
v 0.954500 -0.037745 -0.255758
v 0.984084 -0.067107 -0.263685
v 1.041406 -0.067107 -0.279044
v 1.060963 -0.049407 -0.284285
v 1.060963 -0.016663 -0.284285
v 1.056373 0.016368 -0.283055
v 1.031209 0.051602 -0.276312
v 0.974758 0.078238 -0.261186
v 0.489608 -0.037745 -0.848027
v 0.848027 -0.037745 -0.489609
v 0.979217 -0.037745 0.000000
v 0.698742 0.009253 -0.698742
v 0.698742 -0.037745 -0.698742
v 0.720400 -0.067107 -0.720400
v 0.762362 -0.067107 -0.762362
v 0.776678 -0.049407 -0.776679
v 0.776678 -0.016663 -0.776679
v 0.773318 0.016368 -0.773319
v 0.754898 0.051602 -0.754898
v 0.489608 0.009253 -0.848027
v 0.848027 0.009253 -0.489609
v 0.979217 0.009253 0.000000
v 0.713572 0.078238 -0.713573
v 0.000000 0.078238 -1.000000
v -0.500000 0.078238 -0.866026
v -0.866025 0.078238 -0.500000
v -1.000000 0.078238 0.000000
v 0.000000 0.051602 -1.057913
v -0.528957 0.051602 -0.916180
v -0.916180 0.051602 -0.528957
v -1.057913 0.051602 0.000000
v 0.000000 0.016368 -1.083728
v -0.541864 0.016368 -0.938536
v -0.938536 0.016368 -0.541865
v -1.083728 0.016368 0.000000
v 0.000000 -0.016663 -1.088437
v -0.544218 -0.016663 -0.942614
v -0.942614 -0.016663 -0.544219
v -1.088437 -0.016663 0.000000
v 0.000000 -0.049407 -1.088437
v -0.544218 -0.049407 -0.942614
v -0.942614 -0.049407 -0.544219
v -1.088437 -0.049407 0.000000
v -0.255757 0.009253 -0.954500
v -0.255757 -0.037745 -0.954500
v 0.000000 -0.067107 -1.068374
v -0.534187 -0.067107 -0.925239
v -0.925239 -0.067107 -0.534187
v -1.068374 -0.067107 0.000000
v -0.263684 -0.067107 -0.984084
v -0.279044 -0.067107 -1.041406
v -0.284284 -0.049407 -1.060963
v -0.284284 -0.016663 -1.060963
v -0.283054 0.016368 -1.056373
v -0.276312 0.051602 -1.031209
v -0.261185 0.078238 -0.974758
v -0.954500 0.009253 -0.255758
v 0.000000 -0.067107 -1.009568
v -0.504784 -0.067107 -0.874312
v -0.874311 -0.067107 -0.504784
v -1.009568 -0.067107 0.000000
v -0.954500 -0.037745 -0.255758
v -0.984084 -0.067107 -0.263685
v -1.041406 -0.067107 -0.279044
v -1.060963 -0.049407 -0.284285
v -1.060963 -0.016663 -0.284285
v -1.056373 0.016368 -0.283055
v -1.031209 0.051602 -0.276312
v -0.974758 0.078238 -0.261186
v 0.000000 -0.037745 -0.979217
v -0.489608 -0.037745 -0.848027
v -0.848027 -0.037745 -0.489609
v -0.979217 -0.037745 0.000000
v -0.698742 0.009253 -0.698742
v -0.698742 -0.037745 -0.698742
v -0.720400 -0.067107 -0.720400
v -0.762362 -0.067107 -0.762362
v -0.776678 -0.049407 -0.776679
v -0.776678 -0.016663 -0.776679
v -0.773318 0.016368 -0.773319
v -0.754898 0.051602 -0.754898
v 0.000000 0.009253 -0.979217
v -0.489608 0.009253 -0.848027
v -0.848027 0.009253 -0.489609
v -0.979217 0.009253 0.000000
v -0.713572 0.078238 -0.713573
v 0.000000 0.009253 0.000000
v 0.000000 0.078238 0.000000
vt 0.386884 0.906509
vt 0.260878 0.881441
vt 0.251808 0.893314
vt 0.380420 0.923911
vt 0.154980 0.829561
vt 0.094040 0.746131
vt 0.080402 0.755767
vt 0.145375 0.839992
vt 0.098658 0.619283
vt 0.122333 0.488954
vt 0.104450 0.488898
vt 0.080101 0.626360
vt 0.092832 0.488888
vt 0.068525 0.630941
vt 0.246111 0.900517
vt 0.376199 0.934187
vt 0.072560 0.761480
vt 0.139986 0.846146
vt 0.084122 0.488888
vt 0.060162 0.634398
vt 0.241939 0.905638
vt 0.372975 0.941366
vt 0.067193 0.765510
vt 0.136108 0.850677
vt 0.132287 0.855160
vt 0.062408 0.769263
vt 0.058839 0.772192
vt 0.129171 0.858924
vt 0.075593 0.488888
vt 0.052046 0.637856
vt 0.237938 0.910346
vt 0.369620 0.948144
vt 0.068643 0.488888
vt 0.045292 0.640883
vt 0.234738 0.913957
vt 0.366736 0.953672
vt 0.051900 0.778618
vt 0.030172 0.648660
vt 0.019000 0.655084
vt 0.047172 0.783632
vt 0.122441 0.867156
vt 0.491721 0.930874
vt 0.491993 0.938149
vt 0.050874 0.488888
vt 0.492292 0.945098
vt 0.491105 0.904499
vt 0.491420 0.920856
vt 0.492559 0.950712
vt 0.227608 0.921277
vt 0.359203 0.965545
vt 0.493308 0.964836
vt 0.352870 0.974035
vt 0.494016 0.977323
vt 0.117625 0.873112
vt 0.344574 0.982953
vt 0.495229 0.999795
vt 0.018039 0.499685
vt 0.221947 0.926570
vt 0.214659 0.932826
vt 0.112263 0.879694
vt 0.041905 0.790011
vt 0.006609 0.663451
vt 0.000663 0.500000
vt 0.001701 1.000379
vt 0.496745 0.500000
vt 0.571786 0.919255
vt 0.579315 0.937538
vt 0.743752 0.930694
vt 0.733233 0.915745
vt 0.779967 0.803352
vt 0.803226 0.826673
vt 0.889305 0.747088
vt 0.874285 0.736452
vt 0.888133 0.622359
vt 0.907557 0.629812
vt 0.914568 0.499819
vt 0.895217 0.499858
vt 0.920189 0.634949
vt 0.927067 0.499795
vt 0.584447 0.949529
vt 0.750924 0.940648
vt 0.818454 0.841943
vt 0.899298 0.754351
vt 0.929529 0.638942
vt 0.936398 0.499777
vt 0.588398 0.958542
vt 0.756440 0.948146
vt 0.830653 0.854080
vt 0.906820 0.759945
vt 0.843725 0.866890
vt 0.855276 0.878240
vt 0.919802 0.770010
vt 0.914052 0.765484
vt 0.938759 0.643022
vt 0.945507 0.499760
vt 0.592485 0.967544
vt 0.761898 0.955361
vt 0.946525 0.646621
vt 0.952901 0.499747
vt 0.596006 0.975154
vt 0.766359 0.961098
vt 0.931991 0.780279
vt 0.941235 0.788532
vt 0.977010 0.663252
vt 0.963975 0.655737
vt 0.882565 0.904852
vt 0.971666 0.499719
vt 0.604941 0.992295
vt 0.776428 0.973293
vt 0.612292 1.005128
vt 0.903634 0.925288
vt 0.621768 1.019201
vt 0.988150 0.499700
vt 0.784575 0.982477
vt 1.000609 0.999119
vt 1.000280 0.499685
vt 0.991580 0.673006
vt 0.952540 0.799163
vt 0.927650 0.948417
vt 0.795118 0.993563
vt 0.379306 0.106269
vt 0.369910 0.083671
vt 0.263032 0.129237
vt 0.277105 0.147202
vt 0.197836 0.208372
vt 0.182119 0.193416
vt 0.107597 0.252034
vt 0.121602 0.261320
vt 0.077390 0.360539
vt 0.069106 0.360173
vt 0.057303 0.355800
vt 0.364112 0.069876
vt 0.254432 0.118311
vt 0.173126 0.184699
vt 0.093856 0.241433
vt 0.045002 0.350329
vt 0.359946 0.060161
vt 0.248352 0.110629
vt 0.166428 0.178116
vt 0.084839 0.234527
vt 0.159497 0.171271
vt 0.153488 0.165218
vt 0.073015 0.225818
vt 0.078249 0.229629
vt 0.035007 0.346444
vt 0.355877 0.051019
vt 0.242762 0.103676
vt 0.028033 0.344089
vt 0.352585 0.043666
vt 0.238483 0.098444
vt 0.063016 0.219915
vt 0.055603 0.215932
vt 0.010876 0.340120
vt 0.016767 0.341109
vt 0.140808 0.152118
vt 0.489745 0.073318
vt 0.489803 0.064272
vt 0.489933 0.055609
vt 0.490123 0.105260
vt 0.489788 0.085653
vt 0.490093 0.048623
vt 0.344708 0.028202
vt 0.229578 0.088143
vt 0.490690 0.031388
vt 0.491305 0.019811
vt 0.338590 0.017522
vt 0.132272 0.142986
vt 0.492654 0.000439
vt 0.330808 0.006598
vt 0.223026 0.081037
vt 0.000467 0.000407
vt 0.004898 0.337955
vt 0.046301 0.209004
vt 0.123546 0.133409
vt 0.215169 0.073092
vt 0.618403 0.108575
vt 0.724882 0.130332
vt 0.735402 0.115383
vt 0.625719 0.089503
vt 0.809767 0.190386
vt 0.872933 0.283297
vt 0.887953 0.272661
vt 0.822344 0.177775
vt 0.877269 0.394806
vt 0.896693 0.387320
vt 0.909326 0.382166
vt 0.742573 0.105430
vt 0.630749 0.077135
vt 0.897946 0.265397
vt 0.830578 0.169519
vt 0.918665 0.378162
vt 0.748089 0.097931
vt 0.634659 0.067985
vt 0.905468 0.259803
vt 0.837167 0.162950
vt 0.844221 0.156014
vt 0.912700 0.254265
vt 0.918450 0.249738
vt 0.850451 0.149865
vt 0.927895 0.374073
vt 0.753547 0.090716
vt 0.638736 0.058960
vt 0.935661 0.370469
vt 0.758008 0.084979
vt 0.642250 0.051339
vt 0.930638 0.239469
vt 0.953112 0.361352
vt 0.966146 0.353845
vt 0.939873 0.231209
vt 0.865154 0.135441
vt 0.768076 0.072784
vt 0.651185 0.034197
vt 0.658546 0.021384
vt 0.876500 0.124359
vt 0.668048 0.007359
vt 0.776214 0.063594
vt 0.786734 0.052493
vt 0.889426 0.111812
vt 0.951155 0.220563
vt 0.980717 0.344112
vt 0.999664 0.000251
vn -0.1738 -0.9078 -0.3818
vn -0.3414 -0.9078 -0.2437
vn -0.4175 -0.9078 -0.0404
vn -0.8042 -0.5892 -0.0777
vn -0.3348 -0.5892 -0.7353
vn -0.6576 -0.5892 -0.4694
vn -0.9855 -0.1405 -0.0952
vn -0.4103 -0.1405 -0.9011
vn -0.8058 -0.1405 -0.5752
vn -0.5398 0.7484 -0.3854
vn -0.9954 0.0000 -0.0962
vn -0.4144 0.0000 -0.9101
vn -0.8139 0.0000 -0.5810
vn -0.6602 0.7484 -0.0638
vn -0.2748 0.7484 -0.6037
vn 0.6343 0.7171 0.2888
vn 0.0000 1.0000 -0.0000
vn -0.0952 -0.1405 -0.9855
vn -0.0962 0.0000 -0.9954
vn -0.0404 -0.9078 -0.4175
vn -0.0638 0.7484 -0.6602
vn -0.0777 -0.5892 -0.8042
vn -0.3854 0.7484 -0.5398
vn 0.0670 0.7171 0.6937
vn 0.5673 0.7171 0.4049
vn -0.9101 0.0000 -0.4144
vn 0.0962 0.0000 0.9954
vn -0.3818 -0.9078 -0.1738
vn 0.6937 0.7171 0.0670
vn -0.6037 0.7484 -0.2748
vn -0.7353 -0.5892 -0.3348
vn 0.2888 0.7171 0.6343
vn -0.9011 -0.1405 -0.4103
vn 0.5810 0.0000 0.8139
vn 0.9101 0.0000 0.4144
vn 0.8139 0.0000 0.5810
vn -0.5810 0.0000 -0.8139
vn -0.2437 -0.9078 -0.3414
vn -0.4694 -0.5892 -0.6576
vn 0.9954 0.0000 0.0962
vn -0.5752 -0.1405 -0.8058
vn 0.4049 0.7171 0.5673
vn 0.4144 0.0000 0.9101
vn 0.0000 -1.0000 0.0000
vn 0.1738 -0.9078 -0.3818
vn 0.3414 -0.9078 -0.2437
vn 0.4175 -0.9078 -0.0404
vn 0.8042 -0.5892 -0.0777
vn 0.3348 -0.5892 -0.7353
vn 0.6576 -0.5892 -0.4694
vn 0.9855 -0.1405 -0.0952
vn 0.4103 -0.1405 -0.9011
vn 0.8058 -0.1405 -0.5752
vn 0.5398 0.7484 -0.3854
vn 0.9954 0.0000 -0.0962
vn 0.4144 0.0000 -0.9101
vn 0.8139 0.0000 -0.5810
vn 0.6602 0.7484 -0.0638
vn 0.2748 0.7484 -0.6037
vn -0.6343 0.7171 0.2888
vn 0.0952 -0.1405 -0.9855
vn 0.0962 0.0000 -0.9954
vn 0.0404 -0.9078 -0.4175
vn 0.0638 0.7484 -0.6602
vn 0.0777 -0.5892 -0.8042
vn 0.3854 0.7484 -0.5398
vn -0.0670 0.7171 0.6937
vn -0.5673 0.7171 0.4049
vn 0.9101 0.0000 -0.4144
vn -0.0962 0.0000 0.9954
vn 0.3818 -0.9078 -0.1738
vn -0.6937 0.7171 0.0670
vn 0.6037 0.7484 -0.2748
vn 0.7353 -0.5892 -0.3348
vn -0.2888 0.7171 0.6343
vn 0.9011 -0.1405 -0.4103
vn -0.5810 0.0000 0.8139
vn -0.9101 0.0000 0.4144
vn -0.8139 0.0000 0.5810
vn 0.5810 0.0000 -0.8139
vn 0.2437 -0.9078 -0.3414
vn 0.4694 -0.5892 -0.6576
vn -0.9954 0.0000 0.0962
vn 0.5752 -0.1405 -0.8058
vn -0.4049 0.7171 0.5673
vn -0.4144 0.0000 0.9101
vn -0.1738 -0.9078 0.3818
vn -0.3414 -0.9078 0.2437
vn -0.4175 -0.9078 0.0404
vn -0.8042 -0.5892 0.0777
vn -0.3348 -0.5892 0.7353
vn -0.6576 -0.5892 0.4694
vn -0.9855 -0.1405 0.0952
vn -0.4103 -0.1405 0.9011
vn -0.8058 -0.1405 0.5752
vn -0.5398 0.7484 0.3854
vn -0.6602 0.7484 0.0638
vn -0.2748 0.7484 0.6037
vn 0.6343 0.7171 -0.2888
vn -0.0952 -0.1405 0.9855
vn -0.0404 -0.9078 0.4175
vn -0.0638 0.7484 0.6602
vn -0.0777 -0.5892 0.8042
vn -0.3854 0.7484 0.5398
vn 0.0670 0.7171 -0.6937
vn 0.5673 0.7171 -0.4049
vn -0.3818 -0.9078 0.1738
vn 0.6937 0.7171 -0.0670
vn -0.6037 0.7484 0.2748
vn -0.7353 -0.5892 0.3348
vn 0.2888 0.7171 -0.6343
vn -0.9011 -0.1405 0.4103
vn -0.2437 -0.9078 0.3414
vn -0.4694 -0.5892 0.6576
vn -0.5752 -0.1405 0.8058
vn 0.4049 0.7171 -0.5673
vn 0.1738 -0.9078 0.3818
vn 0.3414 -0.9078 0.2437
vn 0.4175 -0.9078 0.0404
vn 0.8042 -0.5892 0.0777
vn 0.3348 -0.5892 0.7353
vn 0.6576 -0.5892 0.4694
vn 0.9855 -0.1405 0.0952
vn 0.4103 -0.1405 0.9011
vn 0.8058 -0.1405 0.5752
vn 0.5398 0.7484 0.3854
vn 0.6602 0.7484 0.0638
vn 0.2748 0.7484 0.6037
vn -0.6343 0.7171 -0.2888
vn 0.0952 -0.1405 0.9855
vn 0.0404 -0.9078 0.4175
vn 0.0638 0.7484 0.6602
vn 0.0777 -0.5892 0.8042
vn 0.3854 0.7484 0.5398
vn -0.0670 0.7171 -0.6937
vn -0.5673 0.7171 -0.4049
vn 0.3818 -0.9078 0.1738
vn -0.6937 0.7171 -0.0670
vn 0.6037 0.7484 0.2748
vn 0.7353 -0.5892 0.3348
vn -0.2888 0.7171 -0.6343
vn 0.9011 -0.1405 0.4103
vn 0.2437 -0.9078 0.3414
vn 0.4694 -0.5892 0.6576
vn 0.5752 -0.1405 0.8058
vn -0.4049 0.7171 -0.5673
usemtl Material
s off
f 21/1/1 1/2/1 3/3/1 20/4/1
f 45/5/2 2/6/2 4/7/2 42/8/2
f 32/9/3 102/10/3 105/11/3 31/12/3
f 31/12/4 105/11/4 108/13/4 30/14/4
f 20/4/5 3/3/5 5/15/5 19/16/5
f 42/8/6 4/7/6 6/17/6 41/18/6
f 30/14/7 108/13/7 111/19/7 29/20/7
f 19/16/8 5/15/8 7/21/8 18/22/8
f 41/18/9 6/17/9 8/23/9 40/24/9
f 39/25/10 10/26/10 14/27/10 38/28/10
f 29/20/11 111/19/11 114/29/11 28/30/11
f 18/22/12 7/21/12 9/31/12 17/32/12
f 40/24/13 8/23/13 10/26/13 39/25/13
f 28/30/14 114/29/14 119/33/14 27/34/14
f 17/32/15 9/31/15 13/35/15 16/36/15
f 24/37/16 26/38/16 25/39/16 34/40/16
f 38/28/17 14/27/17 24/37/17 37/41/17
f 52/42/18 19/16/18 18/22/18 55/43/18
f 27/34/17 119/33/17 130/44/17 26/38/17
f 55/43/19 18/22/19 17/32/19 58/45/19
f 46/46/20 21/1/20 20/4/20 49/47/20
f 58/45/21 17/32/21 16/36/21 63/48/21
f 16/36/17 13/35/17 23/49/17 15/50/17
f 49/47/22 20/4/22 19/16/22 52/42/22
f 63/48/17 16/36/17 15/50/17 74/51/17
f 9/31/23 39/25/23 38/28/23 13/35/23
f 74/51/24 15/50/24 12/52/24 85/53/24
f 37/41/25 24/37/25 34/40/25 36/54/25
f 8/23/26 29/20/26 28/30/26 10/26/26
f 85/53/27 12/52/27 11/55/27 96/56/27
f 2/6/28 32/9/28 31/12/28 4/7/28
f 26/38/29 130/44/29 141/57/29 25/39/29
f 10/26/30 28/30/30 27/34/30 14/27/30
f 4/7/31 31/12/31 30/14/31 6/17/31
f 14/27/17 27/34/17 26/38/17 24/37/17
f 15/50/32 23/49/32 33/58/32 12/52/32
f 6/17/33 30/14/33 29/20/33 8/23/33
f 96/56/17 11/55/17 43/59/17 35/60/17 44/61/17 22/62/17 152/63/17 217/64/17
f 33/58/34 36/54/34 35/60/34 43/59/34
f 34/40/35 25/39/35 22/62/35 44/61/35
f 36/54/36 34/40/36 44/61/36 35/60/36
f 7/21/37 40/24/37 39/25/37 9/31/37
f 1/2/38 45/5/38 42/8/38 3/3/38
f 3/3/39 42/8/39 41/18/39 5/15/39
f 25/39/40 141/57/40 152/63/40 22/62/40
f 13/35/17 38/28/17 37/41/17 23/49/17
f 5/15/41 41/18/41 40/24/41 7/21/41
f 23/49/42 37/41/42 36/54/42 33/58/42
f 12/52/43 33/58/43 43/59/43 11/55/43
f 46/46/44 218/65/44 102/10/44 32/9/44 2/6/44 45/5/44 1/2/44 21/1/44
f 72/66/45 71/67/45 50/68/45 47/69/45
f 99/70/46 95/71/46 51/72/46 48/73/46
f 84/74/47 83/75/47 161/76/47 157/77/47
f 83/75/48 82/78/48 165/79/48 161/76/48
f 71/67/49 70/80/49 53/81/49 50/68/49
f 95/71/50 94/82/50 54/83/50 51/72/50
f 82/78/51 81/84/51 169/85/51 165/79/51
f 70/80/52 69/86/52 56/87/52 53/81/52
f 94/82/53 93/88/53 57/89/53 54/83/53
f 92/90/54 91/91/54 65/92/54 60/93/54
f 81/84/55 80/94/55 173/95/55 169/85/55
f 69/86/56 68/96/56 59/97/56 56/87/56
f 93/88/57 92/90/57 60/93/57 57/89/57
f 80/94/58 79/98/58 179/99/58 173/95/58
f 68/96/59 67/100/59 64/101/59 59/97/59
f 76/102/60 87/103/60 77/104/60 78/105/60
f 91/91/17 90/106/17 76/102/17 65/92/17
f 52/42/61 55/43/61 69/86/61 70/80/61
f 79/98/17 78/105/17 191/107/17 179/99/17
f 55/43/62 58/45/62 68/96/62 69/86/62
f 46/46/63 49/47/63 71/67/63 72/66/63
f 58/45/64 63/48/64 67/100/64 68/96/64
f 67/100/17 66/108/17 75/109/17 64/101/17
f 49/47/65 52/42/65 70/80/65 71/67/65
f 63/48/17 74/51/17 66/108/17 67/100/17
f 59/97/66 64/101/66 91/91/66 92/90/66
f 74/51/67 85/53/67 62/110/67 66/108/67
f 90/106/68 89/111/68 87/103/68 76/102/68
f 57/89/69 60/93/69 80/94/69 81/84/69
f 85/53/70 96/56/70 61/112/70 62/110/70
f 48/73/71 51/72/71 83/75/71 84/74/71
f 78/105/72 77/104/72 203/113/72 191/107/72
f 60/93/73 65/92/73 79/98/73 80/94/73
f 51/72/74 54/83/74 82/78/74 83/75/74
f 65/92/17 76/102/17 78/105/17 79/98/17
f 66/108/75 62/110/75 86/114/75 75/109/75
f 54/83/76 57/89/76 81/84/76 82/78/76
f 96/56/17 217/115/17 215/116/17 73/117/17 98/118/17 88/119/17 97/120/17 61/112/17
f 86/114/77 97/120/77 88/119/77 89/111/77
f 87/103/78 98/118/78 73/117/78 77/104/78
f 89/111/79 88/119/79 98/118/79 87/103/79
f 56/87/80 59/97/80 92/90/80 93/88/80
f 47/69/81 50/68/81 95/71/81 99/70/81
f 50/68/82 53/81/82 94/82/82 95/71/82
f 77/104/83 73/117/83 215/116/83 203/113/83
f 64/101/17 75/109/17 90/106/17 91/91/17
f 53/81/84 56/87/84 93/88/84 94/82/84
f 75/109/85 86/114/85 89/111/85 90/106/85
f 62/110/86 61/112/86 97/120/86 86/114/86
f 46/46/44 72/66/44 47/69/44 99/70/44 48/73/44 84/74/44 157/77/44 218/65/44
f 126/121/87 125/122/87 103/123/87 100/124/87
f 153/125/88 149/126/88 104/127/88 101/128/88
f 138/129/89 137/130/89 105/11/89 102/10/89
f 137/130/90 136/131/90 108/13/90 105/11/90
f 125/122/91 124/132/91 106/133/91 103/123/91
f 149/126/92 148/134/92 107/135/92 104/127/92
f 136/131/93 135/136/93 111/19/93 108/13/93
f 124/132/94 123/137/94 109/138/94 106/133/94
f 148/134/95 147/139/95 110/140/95 107/135/95
f 146/141/96 145/142/96 118/143/96 113/144/96
f 135/136/83 134/145/83 114/29/83 111/19/83
f 123/137/86 122/146/86 112/147/86 109/138/86
f 147/139/79 146/141/79 113/144/79 110/140/79
f 134/145/97 133/148/97 119/33/97 114/29/97
f 122/146/98 121/149/98 117/150/98 112/147/98
f 129/151/99 140/152/99 131/153/99 132/154/99
f 145/142/17 144/155/17 129/151/17 118/143/17
f 162/156/100 166/157/100 123/137/100 124/132/100
f 133/148/17 132/154/17 130/44/17 119/33/17
f 166/157/70 170/158/70 122/146/70 123/137/70
f 154/159/101 158/160/101 125/122/101 126/121/101
f 170/158/102 176/161/102 121/149/102 122/146/102
f 121/149/17 120/162/17 128/163/17 117/150/17
f 158/160/103 162/156/103 124/132/103 125/122/103
f 176/161/17 188/164/17 120/162/17 121/149/17
f 112/147/104 117/150/104 145/142/104 146/141/104
f 188/164/105 200/165/105 116/166/105 120/162/105
f 144/155/106 143/167/106 140/152/106 129/151/106
f 110/140/78 113/144/78 134/145/78 135/136/78
f 200/165/62 212/168/62 115/169/62 116/166/62
f 101/128/107 104/127/107 137/130/107 138/129/107
f 132/154/108 131/153/108 141/57/108 130/44/108
f 113/144/109 118/143/109 133/148/109 134/145/109
f 104/127/110 107/135/110 136/131/110 137/130/110
f 118/143/17 129/151/17 132/154/17 133/148/17
f 120/162/111 116/166/111 139/170/111 128/163/111
f 107/135/112 110/140/112 135/136/112 136/131/112
f 212/168/17 217/171/17 152/63/17 127/172/17 151/173/17 142/174/17 150/175/17 115/169/17
f 139/170/80 150/175/80 142/174/80 143/167/80
f 140/152/69 151/173/69 127/172/69 131/153/69
f 143/167/57 142/174/57 151/173/57 140/152/57
f 109/138/77 112/147/77 146/141/77 147/139/77
f 100/124/113 103/123/113 149/126/113 153/125/113
f 103/123/114 106/133/114 148/134/114 149/126/114
f 131/153/55 127/172/55 152/63/55 141/57/55
f 117/150/17 128/163/17 144/155/17 145/142/17
f 106/133/115 109/138/115 147/139/115 148/134/115
f 128/163/116 139/170/116 143/167/116 144/155/116
f 116/166/56 115/169/56 150/175/56 139/170/56
f 154/159/44 126/121/44 100/124/44 153/125/44 101/128/44 138/129/44 102/10/44 218/65/44
f 186/176/117 155/177/117 159/178/117 185/179/117
f 216/180/118 156/181/118 160/182/118 211/183/118
f 199/184/119 157/77/119 161/76/119 198/185/119
f 198/185/120 161/76/120 165/79/120 197/186/120
f 185/179/121 159/178/121 163/187/121 184/188/121
f 211/183/122 160/182/122 164/189/122 210/190/122
f 197/186/123 165/79/123 169/85/123 196/191/123
f 184/188/124 163/187/124 167/192/124 183/193/124
f 210/190/125 164/189/125 168/194/125 209/195/125
f 208/196/126 172/197/126 178/198/126 207/199/126
f 196/191/40 169/85/40 173/95/40 195/200/40
f 183/193/43 167/192/43 171/201/43 182/202/43
f 209/195/36 168/194/36 172/197/36 208/196/36
f 195/200/127 173/95/127 179/99/127 194/203/127
f 182/202/128 171/201/128 177/204/128 181/205/128
f 190/206/129 193/207/129 192/208/129 202/209/129
f 207/199/17 178/198/17 190/206/17 206/210/17
f 162/156/130 184/188/130 183/193/130 166/157/130
f 194/203/17 179/99/17 191/107/17 193/207/17
f 166/157/27 183/193/27 182/202/27 170/158/27
f 154/159/131 186/176/131 185/179/131 158/160/131
f 170/158/132 182/202/132 181/205/132 176/161/132
f 181/205/17 177/204/17 189/211/17 180/212/17
f 158/160/133 185/179/133 184/188/133 162/156/133
f 176/161/17 181/205/17 180/212/17 188/164/17
f 171/201/134 208/196/134 207/199/134 177/204/134
f 188/164/135 180/212/135 175/213/135 200/165/135
f 206/210/136 190/206/136 202/209/136 205/214/136
f 168/194/35 196/191/35 195/200/35 172/197/35
f 200/165/19 175/213/19 174/215/19 212/168/19
f 156/181/137 199/184/137 198/185/137 160/182/137
f 193/207/138 191/107/138 203/113/138 192/208/138
f 172/197/139 195/200/139 194/203/139 178/198/139
f 160/182/140 198/185/140 197/186/140 164/189/140
f 178/198/17 194/203/17 193/207/17 190/206/17
f 180/212/141 189/211/141 201/216/141 175/213/141
f 164/189/142 197/186/142 196/191/142 168/194/142
f 212/168/17 174/215/17 213/217/17 204/218/17 214/219/17 187/220/17 215/116/17 217/221/17
f 201/216/37 205/214/37 204/218/37 213/217/37
f 202/209/26 192/208/26 187/220/26 214/219/26
f 205/214/13 202/209/13 214/219/13 204/218/13
f 167/192/34 209/195/34 208/196/34 171/201/34
f 155/177/143 216/180/143 211/183/143 159/178/143
f 159/178/144 211/183/144 210/190/144 163/187/144
f 192/208/11 203/113/11 215/116/11 187/220/11
f 177/204/17 207/199/17 206/210/17 189/211/17
f 163/187/145 210/190/145 209/195/145 167/192/145
f 189/211/146 206/210/146 205/214/146 201/216/146
f 175/213/12 201/216/12 213/217/12 174/215/12
f 154/159/44 218/65/44 157/77/44 199/184/44 156/181/44 216/180/44 155/177/44 186/176/44
