# Blender v2.92.0 OBJ File: 'frisbee.blend'
# www.blender.org
mtllib frisbee.mtl
o Cube
v 0.500000 0.078238 0.866026
v 0.866025 0.078238 0.500000
v 0.528957 0.051602 0.916180
v 0.916180 0.051602 0.528957
v 0.541864 0.016368 0.938536
v 0.938536 0.016368 0.541865
v 0.544218 -0.016663 0.942614
v 0.942614 -0.016663 0.544219
v 0.544218 -0.049407 0.942614
v 0.942614 -0.049407 0.544219
v 0.255757 0.009253 0.954500
v 0.255757 -0.037745 0.954500
v 0.534187 -0.067107 0.925239
v 0.925239 -0.067107 0.534187
v 0.263684 -0.067107 0.984084
v 0.279044 -0.067107 1.041406
v 0.284284 -0.049407 1.060963
v 0.284284 -0.016663 1.060963
v 0.283054 0.016368 1.056373
v 0.276312 0.051602 1.031209
v 0.261185 0.078238 0.974758
v 0.954500 0.009253 0.255758
v 0.504784 -0.067107 0.874312
v 0.874311 -0.067107 0.504784
v 0.954500 -0.037745 0.255758
v 0.984084 -0.067107 0.263685
v 1.041406 -0.067107 0.279044
v 1.060963 -0.049407 0.284285
v 1.060963 -0.016663 0.284285
v 1.056373 0.016368 0.283055
v 1.031209 0.051602 0.276312
v 0.974758 0.078238 0.261186
v 0.489608 -0.037745 0.848027
v 0.848027 -0.037745 0.489609
v 0.698742 0.009253 0.698742
v 0.698742 -0.037745 0.698742
v 0.720400 -0.067107 0.720400
v 0.762362 -0.067107 0.762362
v 0.776678 -0.049407 0.776679
v 0.776678 -0.016663 0.776679
v 0.773318 0.016368 0.773319
v 0.754898 0.051602 0.754898
v 0.489608 0.009253 0.848027
v 0.848027 0.009253 0.489609
v 0.713572 0.078238 0.713573
v 0.000000 0.078238 1.000000
v -0.500000 0.078238 0.866026
v -0.866025 0.078238 0.500000
v 0.000000 0.051602 1.057913
v -0.528957 0.051602 0.916180
v -0.916180 0.051602 0.528957
v 0.000000 0.016368 1.083728
v -0.541864 0.016368 0.938536
v -0.938536 0.016368 0.541865
v 0.000000 -0.016663 1.088437
v -0.544218 -0.016663 0.942614
v -0.942614 -0.016663 0.544219
v 0.000000 -0.049407 1.088437
v -0.544218 -0.049407 0.942614
v -0.942614 -0.049407 0.544219
v -0.255757 0.009253 0.954500
v -0.255757 -0.037745 0.954500
v 0.000000 -0.067107 1.068374
v -0.534187 -0.067107 0.925239
v -0.925239 -0.067107 0.534187
v -0.263684 -0.067107 0.984084
v -0.279044 -0.067107 1.041406
v -0.284284 -0.049407 1.060963
v -0.284284 -0.016663 1.060963
v -0.283054 0.016368 1.056373
v -0.276312 0.051602 1.031209
v -0.261185 0.078238 0.974758
v -0.954500 0.009253 0.255758
v 0.000000 -0.067107 1.009568
v -0.504784 -0.067107 0.874312
v -0.874311 -0.067107 0.504784
v -0.954500 -0.037745 0.255758
v -0.984084 -0.067107 0.263685
v -1.041406 -0.067107 0.279044
v -1.060963 -0.049407 0.284285
v -1.060963 -0.016663 0.284285
v -1.056373 0.016368 0.283055
v -1.031209 0.051602 0.276312
v -0.974758 0.078238 0.261186
v 0.000000 -0.037745 0.979217
v -0.489608 -0.037745 0.848027
v -0.848027 -0.037745 0.489609
v -0.698742 0.009253 0.698742
v -0.698742 -0.037745 0.698742
v -0.720400 -0.067107 0.720400
v -0.762362 -0.067107 0.762362
v -0.776678 -0.049407 0.776679
v -0.776678 -0.016663 0.776679
v -0.773318 0.016368 0.773319
v -0.754898 0.051602 0.754898
v 0.000000 0.009253 0.979217
v -0.489608 0.009253 0.848027
v -0.848027 0.009253 0.489609
v -0.713572 0.078238 0.713573
v 0.500000 0.078238 -0.866026
v 0.866025 0.078238 -0.500000
v 1.000000 0.078238 0.000000
v 0.528957 0.051602 -0.916180
v 0.916180 0.051602 -0.528957
v 1.057913 0.051602 0.000000
v 0.541864 0.016368 -0.938536
v 0.938536 0.016368 -0.541865
v 1.083728 0.016368 0.000000
v 0.544218 -0.016663 -0.942614
v 0.942614 -0.016663 -0.544219
v 1.088437 -0.016663 0.000000
v 0.544218 -0.049407 -0.942614
v 0.942614 -0.049407 -0.544219
v 1.088437 -0.049407 0.000000
v 0.255757 0.009253 -0.954500
v 0.255757 -0.037745 -0.954500
v 0.534187 -0.067107 -0.925239
v 0.925239 -0.067107 -0.534187
v 1.068374 -0.067107 0.000000
v 0.263684 -0.067107 -0.984084
v 0.279044 -0.067107 -1.041406
v 0.284284 -0.049407 -1.060963
v 0.284284 -0.016663 -1.060963
v 0.283054 0.016368 -1.056373
v 0.276312 0.051602 -1.031209
v 0.261185 0.078238 -0.974758
v 0.954500 0.009253 -0.255758
v 0.504784 -0.067107 -0.874312
v 0.874311 -0.067107 -0.504784
v 1.009568 -0.067107 0.000000
v 0.954500 -0.037745 -0.255758
v 0.984084 -0.067107 -0.263685
v 1.041406 -0.067107 -0.279044
v 1.060963 -0.049407 -0.284285
v 1.060963 -0.016663 -0.284285
v 1.056373 0.016368 -0.283055
v 1.031209 0.051602 -0.276312
v 0.974758 0.078238 -0.261186
v 0.489608 -0.037745 -0.848027
v 0.848027 -0.037745 -0.489609
v 0.979217 -0.037745 0.000000
v 0.698742 0.009253 -0.698742
v 0.698742 -0.037745 -0.698742
v 0.720400 -0.067107 -0.720400
v 0.762362 -0.067107 -0.762362
v 0.776678 -0.049407 -0.776679
v 0.776678 -0.016663 -0.776679
v 0.773318 0.016368 -0.773319
v 0.754898 0.051602 -0.754898
v 0.489608 0.009253 -0.848027
v 0.848027 0.009253 -0.489609
v 0.979217 0.009253 0.000000
v 0.713572 0.078238 -0.713573
v 0.000000 0.078238 -1.000000
v -0.500000 0.078238 -0.866026
v -0.866025 0.078238 -0.500000
v -1.000000 0.078238 0.000000
v 0.000000 0.051602 -1.057913
v -0.528957 0.051602 -0.916180
v -0.916180 0.051602 -0.528957
v -1.057913 0.051602 0.000000
v 0.000000 0.016368 -1.083728
v -0.541864 0.016368 -0.938536
v -0.938536 0.016368 -0.541865
v -1.083728 0.016368 0.000000
v 0.000000 -0.016663 -1.088437
v -0.544218 -0.016663 -0.942614
v -0.942614 -0.016663 -0.544219
v -1.088437 -0.016663 0.000000
v 0.000000 -0.049407 -1.088437
v -0.544218 -0.049407 -0.942614
v -0.942614 -0.049407 -0.544219
v -1.088437 -0.049407 0.000000
v -0.255757 0.009253 -0.954500
v -0.255757 -0.037745 -0.954500
v 0.000000 -0.067107 -1.068374
v -0.534187 -0.067107 -0.925239
v -0.925239 -0.067107 -0.534187
v -1.068374 -0.067107 0.000000
v -0.263684 -0.067107 -0.984084
v -0.279044 -0.067107 -1.041406
v -0.284284 -0.049407 -1.060963
v -0.284284 -0.016663 -1.060963
v -0.283054 0.016368 -1.056373
v -0.276312 0.051602 -1.031209
v -0.261185 0.078238 -0.974758
v -0.954500 0.009253 -0.255758
v 0.000000 -0.067107 -1.009568
v -0.504784 -0.067107 -0.874312
v -0.874311 -0.067107 -0.504784
v -1.009568 -0.067107 0.000000
v -0.954500 -0.037745 -0.255758
v -0.984084 -0.067107 -0.263685
v -1.041406 -0.067107 -0.279044
v -1.060963 -0.049407 -0.284285
v -1.060963 -0.016663 -0.284285
v -1.056373 0.016368 -0.283055
v -1.031209 0.051602 -0.276312
v -0.974758 0.078238 -0.261186
v 0.000000 -0.037745 -0.979217
v -0.489608 -0.037745 -0.848027
v -0.848027 -0.037745 -0.489609
v -0.979217 -0.037745 0.000000
v -0.698742 0.009253 -0.698742
v -0.698742 -0.037745 -0.698742
v -0.720400 -0.067107 -0.720400
v -0.762362 -0.067107 -0.762362
v -0.776678 -0.049407 -0.776679
v -0.776678 -0.016663 -0.776679
v -0.773318 0.016368 -0.773319
v -0.754898 0.051602 -0.754898
v 0.000000 0.009253 -0.979217
v -0.489608 0.009253 -0.848027
v -0.848027 0.009253 -0.489609
v -0.979217 0.009253 0.000000
v -0.713572 0.078238 -0.713573
v 0.000000 0.009253 0.000000
v 0.000000 0.078238 0.000000
vt 0.000000 0.000000
vt 0.000000 0.000000
vt 0.000000 0.000000
vt 0.000000 0.000000
vt 0.000000 0.000000
vt 0.000000 0.000000
vt 0.000000 0.000000
vt 0.000000 0.000000
vt 0.000000 0.000000
vt 0.000000 0.000000
vt 0.000000 0.000000
vt 0.000000 0.000000
vt 0.000000 0.000000
vt 0.000000 0.000000
vt 0.000000 0.000000
vt 0.000000 0.000000
vt 0.000000 0.000000
vt 0.000000 0.000000
vt 0.000000 0.000000
vt 0.000000 0.000000
vt 0.000000 0.000000
vt 0.000000 0.000000
vt 0.000000 0.000000
vt 0.000000 0.000000
vt 0.000000 0.000000
vt 0.000000 0.000000
vt 0.000000 0.000000
vt 0.000000 0.000000
vt 0.000000 0.000000
vt 0.000000 0.000000
vt 0.000000 0.000000
vt 0.000000 0.000000
vt 0.000000 0.000000
vt 0.000000 0.000000
vt 0.000000 0.000000
vt 0.000000 0.000000
vt 0.000000 0.000000
vt 0.000000 0.000000
vt 0.000000 0.000000
vt 0.000000 0.000000
vt 0.000000 0.000000
vt 0.000000 0.000000
vt 0.000000 0.000000
vt 0.000000 0.000000
vt 0.000000 0.000000
vt 0.000000 0.000000
vt 0.000000 0.000000
vt 0.000000 0.000000
vt 0.000000 0.000000
vt 0.000000 0.000000
vt 0.000000 0.000000
vt 0.000000 0.000000
vt 0.000000 0.000000
vt 0.000000 0.000000
vt 0.000000 0.000000
vt 0.000000 0.000000
vt 0.000000 0.000000
vt 0.000000 0.000000
vt 0.000000 0.000000
vt 0.000000 0.000000
vt 0.000000 0.000000
vt 0.000000 0.000000
vt 0.000000 0.000000
vt 0.000000 0.000000
vt 0.000000 0.000000
vt 0.000000 0.000000
vt 0.000000 0.000000
vt 0.000000 0.000000
vt 0.000000 0.000000
vt 0.000000 0.000000
vt 0.000000 0.000000
vt 0.000000 0.000000
vt 0.000000 0.000000
vt 0.000000 0.000000
vt 0.000000 0.000000
vt 0.000000 0.000000
vt 0.000000 0.000000
vt 0.000000 0.000000
vt 0.000000 0.000000
vt 0.000000 0.000000
vt 0.000000 0.000000
vt 0.000000 0.000000
vt 0.000000 0.000000
vt 0.000000 0.000000
vt 0.000000 0.000000
vt 0.000000 0.000000
vt 0.000000 0.000000
vt 0.000000 0.000000
vt 0.000000 0.000000
vt 0.000000 0.000000
vt 0.000000 0.000000
vt 0.000000 0.000000
vt 0.000000 0.000000
vt 0.000000 0.000000
vt 0.000000 0.000000
vt 0.000000 0.000000
vt 0.000000 0.000000
vt 0.000000 0.000000
vt 0.000000 0.000000
vt 0.000000 0.000000
vt 0.000000 0.000000
vt 0.000000 0.000000
vt 0.000000 0.000000
vt 0.000000 0.000000
vt 0.000000 0.000000
vt 0.000000 0.000000
vt 0.000000 0.000000
vt 0.000000 0.000000
vt 0.000000 0.000000
vt 0.000000 0.000000
vt 0.000000 0.000000
vt 0.000000 0.000000
vt 0.000000 0.000000
vt 0.000000 0.000000
vt 0.000000 0.000000
vt 0.000000 0.000000
vt 0.000000 0.000000
vt 0.000000 0.000000
vt 0.000000 0.000000
vt 0.000000 0.000000
vt 0.000000 0.000000
vt 0.000000 0.000000
vt 0.000000 0.000000
vt 0.000000 0.000000
vt 0.000000 0.000000
vt 0.000000 0.000000
vt 0.000000 0.000000
vt 0.000000 0.000000
vt 0.000000 0.000000
vt 0.000000 0.000000
vt 0.000000 0.000000
vt 0.000000 0.000000
vt 0.000000 0.000000
vt 0.000000 0.000000
vt 0.000000 0.000000
vt 0.000000 0.000000
vt 0.000000 0.000000
vt 0.000000 0.000000
vt 0.000000 0.000000
vt 0.000000 0.000000
vt 0.000000 0.000000
vt 0.000000 0.000000
vt 0.000000 0.000000
vt 0.000000 0.000000
vt 0.000000 0.000000
vt 0.000000 0.000000
vt 0.000000 0.000000
vt 0.000000 0.000000
vt 0.000000 0.000000
vt 0.000000 0.000000
vt 0.000000 0.000000
vt 0.000000 0.000000
vt 0.000000 0.000000
vt 0.000000 0.000000
vt 0.000000 0.000000
vt 0.000000 0.000000
vt 0.000000 0.000000
vt 0.000000 0.000000
vt 0.000000 0.000000
vt 0.000000 0.000000
vt 0.000000 0.000000
vt 0.000000 0.000000
vt 0.000000 0.000000
vt 0.000000 0.000000
vt 0.000000 0.000000
vt 0.000000 0.000000
vt 0.000000 0.000000
vt 0.000000 0.000000
vt 0.000000 0.000000
vt 0.000000 0.000000
vt 0.000000 0.000000
vt 0.000000 0.000000
vt 0.000000 0.000000
vt 0.000000 0.000000
vt 0.000000 0.000000
vt 0.000000 0.000000
vt 0.000000 0.000000
vt 0.000000 0.000000
vt 0.000000 0.000000
vt 0.000000 0.000000
vt 0.000000 0.000000
vt 0.000000 0.000000
vt 0.000000 0.000000
vt 0.000000 0.000000
vt 0.000000 0.000000
vt 0.000000 0.000000
vt 0.000000 0.000000
vt 0.000000 0.000000
vt 0.000000 0.000000
vt 0.000000 0.000000
vt 0.000000 0.000000
vt 0.000000 0.000000
vt 0.000000 0.000000
vt 0.000000 0.000000
vt 0.000000 0.000000
vt 0.000000 0.000000
vt 0.000000 0.000000
vt 0.000000 0.000000
vt 0.000000 0.000000
vt 0.000000 0.000000
vt 0.000000 0.000000
vt 0.000000 0.000000
vt 0.000000 0.000000
vt 0.000000 0.000000
vt 0.000000 0.000000
vt 0.000000 0.000000
vt 0.000000 0.000000
vt 0.000000 0.000000
vt 0.000000 0.000000
vt 0.000000 0.000000
vt 0.000000 0.000000
vt 0.000000 0.000000
vt 0.000000 0.000000
vt 0.000000 0.000000
vt 0.000000 0.000000
vt 0.000000 0.000000
vt 0.000000 0.000000
vt 0.000000 0.000000
vn -0.1738 -0.9078 -0.3818
vn -0.3414 -0.9078 -0.2437
vn -0.4175 -0.9078 -0.0404
vn -0.8042 -0.5892 -0.0777
vn -0.3348 -0.5892 -0.7353
vn -0.6576 -0.5892 -0.4694
vn -0.9855 -0.1405 -0.0952
vn -0.4103 -0.1405 -0.9011
vn -0.8058 -0.1405 -0.5752
vn -0.5398 0.7484 -0.3854
vn -0.9954 0.0000 -0.0962
vn -0.4144 0.0000 -0.9101
vn -0.8139 0.0000 -0.5810
vn -0.6602 0.7484 -0.0638
vn -0.2748 0.7484 -0.6037
vn 0.6343 0.7171 0.2888
vn 0.0000 1.0000 -0.0000
vn -0.0952 -0.1405 -0.9855
vn -0.0962 0.0000 -0.9954
vn -0.0404 -0.9078 -0.4175
vn -0.0638 0.7484 -0.6602
vn -0.0777 -0.5892 -0.8042
vn -0.3854 0.7484 -0.5398
vn 0.0670 0.7171 0.6937
vn 0.5673 0.7171 0.4049
vn -0.9101 0.0000 -0.4144
vn 0.0962 0.0000 0.9954
vn -0.3818 -0.9078 -0.1738
vn 0.6937 0.7171 0.0670
vn -0.6037 0.7484 -0.2748
vn -0.7353 -0.5892 -0.3348
vn 0.2888 0.7171 0.6343
vn -0.9011 -0.1405 -0.4103
vn 0.5810 0.0000 0.8139
vn 0.9101 0.0000 0.4144
vn 0.8139 0.0000 0.5810
vn -0.5810 0.0000 -0.8139
vn -0.2437 -0.9078 -0.3414
vn -0.4694 -0.5892 -0.6576
vn 0.9954 0.0000 0.0962
vn -0.5752 -0.1405 -0.8058
vn 0.4049 0.7171 0.5673
vn 0.4144 0.0000 0.9101
vn 0.0000 -1.0000 0.0000
vn 0.1738 -0.9078 -0.3818
vn 0.3414 -0.9078 -0.2437
vn 0.4175 -0.9078 -0.0404
vn 0.8042 -0.5892 -0.0777
vn 0.3348 -0.5892 -0.7353
vn 0.6576 -0.5892 -0.4694
vn 0.9855 -0.1405 -0.0952
vn 0.4103 -0.1405 -0.9011
vn 0.8058 -0.1405 -0.5752
vn 0.5398 0.7484 -0.3854
vn 0.9954 0.0000 -0.0962
vn 0.4144 0.0000 -0.9101
vn 0.8139 0.0000 -0.5810
vn 0.6602 0.7484 -0.0638
vn 0.2748 0.7484 -0.6037
vn -0.6343 0.7171 0.2888
vn 0.0952 -0.1405 -0.9855
vn 0.0962 0.0000 -0.9954
vn 0.0404 -0.9078 -0.4175
vn 0.0638 0.7484 -0.6602
vn 0.0777 -0.5892 -0.8042
vn 0.3854 0.7484 -0.5398
vn -0.0670 0.7171 0.6937
vn -0.5673 0.7171 0.4049
vn 0.9101 0.0000 -0.4144
vn -0.0962 0.0000 0.9954
vn 0.3818 -0.9078 -0.1738
vn -0.6937 0.7171 0.0670
vn 0.6037 0.7484 -0.2748
vn 0.7353 -0.5892 -0.3348
vn -0.2888 0.7171 0.6343
vn 0.9011 -0.1405 -0.4103
vn -0.5810 0.0000 0.8139
vn -0.9101 0.0000 0.4144
vn -0.8139 0.0000 0.5810
vn 0.5810 0.0000 -0.8139
vn 0.2437 -0.9078 -0.3414
vn 0.4694 -0.5892 -0.6576
vn -0.9954 0.0000 0.0962
vn 0.5752 -0.1405 -0.8058
vn -0.4049 0.7171 0.5673
vn -0.4144 0.0000 0.9101
vn -0.1738 -0.9078 0.3818
vn -0.3414 -0.9078 0.2437
vn -0.4175 -0.9078 0.0404
vn -0.8042 -0.5892 0.0777
vn -0.3348 -0.5892 0.7353
vn -0.6576 -0.5892 0.4694
vn -0.9855 -0.1405 0.0952
vn -0.4103 -0.1405 0.9011
vn -0.8058 -0.1405 0.5752
vn -0.5398 0.7484 0.3854
vn -0.6602 0.7484 0.0638
vn -0.2748 0.7484 0.6037
vn 0.6343 0.7171 -0.2888
vn -0.0952 -0.1405 0.9855
vn -0.0404 -0.9078 0.4175
vn -0.0638 0.7484 0.6602
vn -0.0777 -0.5892 0.8042
vn -0.3854 0.7484 0.5398
vn 0.0670 0.7171 -0.6937
vn 0.5673 0.7171 -0.4049
vn -0.3818 -0.9078 0.1738
vn 0.6937 0.7171 -0.0670
vn -0.6037 0.7484 0.2748
vn -0.7353 -0.5892 0.3348
vn 0.2888 0.7171 -0.6343
vn -0.9011 -0.1405 0.4103
vn -0.2437 -0.9078 0.3414
vn -0.4694 -0.5892 0.6576
vn -0.5752 -0.1405 0.8058
vn 0.4049 0.7171 -0.5673
vn 0.1738 -0.9078 0.3818
vn 0.3414 -0.9078 0.2437
vn 0.4175 -0.9078 0.0404
vn 0.8042 -0.5892 0.0777
vn 0.3348 -0.5892 0.7353
vn 0.6576 -0.5892 0.4694
vn 0.9855 -0.1405 0.0952
vn 0.4103 -0.1405 0.9011
vn 0.8058 -0.1405 0.5752
vn 0.5398 0.7484 0.3854
vn 0.6602 0.7484 0.0638
vn 0.2748 0.7484 0.6037
vn -0.6343 0.7171 -0.2888
vn 0.0952 -0.1405 0.9855
vn 0.0404 -0.9078 0.4175
vn 0.0638 0.7484 0.6602
vn 0.0777 -0.5892 0.8042
vn 0.3854 0.7484 0.5398
vn -0.0670 0.7171 -0.6937
vn -0.5673 0.7171 -0.4049
vn 0.3818 -0.9078 0.1738
vn -0.6937 0.7171 -0.0670
vn 0.6037 0.7484 0.2748
vn 0.7353 -0.5892 0.3348
vn -0.2888 0.7171 -0.6343
vn 0.9011 -0.1405 0.4103
vn 0.2437 -0.9078 0.3414
vn 0.4694 -0.5892 0.6576
vn 0.5752 -0.1405 0.8058
vn -0.4049 0.7171 -0.5673
usemtl Material
s off
f 21/1/1 1/2/1 3/3/1 20/4/1
f 45/5/2 2/6/2 4/7/2 42/8/2
f 32/9/3 102/10/3 105/11/3 31/12/3
f 31/12/4 105/11/4 108/13/4 30/14/4
f 20/4/5 3/3/5 5/15/5 19/16/5
f 42/8/6 4/7/6 6/17/6 41/18/6
f 30/14/7 108/13/7 111/19/7 29/20/7
f 19/16/8 5/15/8 7/21/8 18/22/8
f 41/18/9 6/17/9 8/23/9 40/24/9
f 39/25/10 10/26/10 14/27/10 38/28/10
f 29/20/11 111/19/11 114/29/11 28/30/11
f 18/22/12 7/21/12 9/31/12 17/32/12
f 40/24/13 8/23/13 10/26/13 39/25/13
f 28/30/14 114/29/14 119/33/14 27/34/14
f 17/32/15 9/31/15 13/35/15 16/36/15
f 24/37/16 26/38/16 25/39/16 34/40/16
f 38/28/17 14/27/17 24/37/17 37/41/17
f 52/42/18 19/16/18 18/22/18 55/43/18
f 27/34/17 119/33/17 130/44/17 26/38/17
f 55/43/19 18/22/19 17/32/19 58/45/19
f 46/46/20 21/1/20 20/4/20 49/47/20
f 58/45/21 17/32/21 16/36/21 63/48/21
f 16/36/17 13/35/17 23/49/17 15/50/17
f 49/47/22 20/4/22 19/16/22 52/42/22
f 63/48/17 16/36/17 15/50/17 74/51/17
f 9/31/23 39/25/23 38/28/23 13/35/23
f 74/51/24 15/50/24 12/52/24 85/53/24
f 37/41/25 24/37/25 34/40/25 36/54/25
f 8/23/26 29/20/26 28/30/26 10/26/26
f 85/53/27 12/52/27 11/55/27 96/56/27
f 2/6/28 32/9/28 31/12/28 4/7/28
f 26/38/29 130/44/29 141/57/29 25/39/29
f 10/26/30 28/30/30 27/34/30 14/27/30
f 4/7/31 31/12/31 30/14/31 6/17/31
f 14/27/17 27/34/17 26/38/17 24/37/17
f 15/50/32 23/49/32 33/58/32 12/52/32
f 6/17/33 30/14/33 29/20/33 8/23/33
f 96/56/17 11/55/17 43/59/17 35/60/17 44/61/17 22/62/17 152/63/17 217/64/17
f 33/58/34 36/54/34 35/60/34 43/59/34
f 34/40/35 25/39/35 22/62/35 44/61/35
f 36/54/36 34/40/36 44/61/36 35/60/36
f 7/21/37 40/24/37 39/25/37 9/31/37
f 1/2/38 45/5/38 42/8/38 3/3/38
f 3/3/39 42/8/39 41/18/39 5/15/39
f 25/39/40 141/57/40 152/63/40 22/62/40
f 13/35/17 38/28/17 37/41/17 23/49/17
f 5/15/41 41/18/41 40/24/41 7/21/41
f 23/49/42 37/41/42 36/54/42 33/58/42
f 12/52/43 33/58/43 43/59/43 11/55/43
f 46/46/44 218/65/44 102/10/44 32/9/44 2/6/44 45/5/44 1/2/44 21/1/44
f 72/66/45 71/67/45 50/68/45 47/69/45
f 99/70/46 95/71/46 51/72/46 48/73/46
f 84/74/47 83/75/47 161/76/47 157/77/47
f 83/75/48 82/78/48 165/79/48 161/76/48
f 71/67/49 70/80/49 53/81/49 50/68/49
f 95/71/50 94/82/50 54/83/50 51/72/50
f 82/78/51 81/84/51 169/85/51 165/79/51
f 70/80/52 69/86/52 56/87/52 53/81/52
f 94/82/53 93/88/53 57/89/53 54/83/53
f 92/90/54 91/91/54 65/92/54 60/93/54
f 81/84/55 80/94/55 173/95/55 169/85/55
f 69/86/56 68/96/56 59/97/56 56/87/56
f 93/88/57 92/90/57 60/93/57 57/89/57
f 80/94/58 79/98/58 179/99/58 173/95/58
f 68/96/59 67/100/59 64/101/59 59/97/59
f 76/102/60 87/103/60 77/104/60 78/105/60
f 91/91/17 90/106/17 76/102/17 65/92/17
f 52/42/61 55/43/61 69/86/61 70/80/61
f 79/98/17 78/105/17 191/107/17 179/99/17
f 55/43/62 58/45/62 68/96/62 69/86/62
f 46/46/63 49/47/63 71/67/63 72/66/63
f 58/45/64 63/48/64 67/100/64 68/96/64
f 67/100/17 66/108/17 75/109/17 64/101/17
f 49/47/65 52/42/65 70/80/65 71/67/65
f 63/48/17 74/51/17 66/108/17 67/100/17
f 59/97/66 64/101/66 91/91/66 92/90/66
f 74/51/67 85/53/67 62/110/67 66/108/67
f 90/106/68 89/111/68 87/103/68 76/102/68
f 57/89/69 60/93/69 80/94/69 81/84/69
f 85/53/70 96/56/70 61/112/70 62/110/70
f 48/73/71 51/72/71 83/75/71 84/74/71
f 78/105/72 77/104/72 203/113/72 191/107/72
f 60/93/73 65/92/73 79/98/73 80/94/73
f 51/72/74 54/83/74 82/78/74 83/75/74
f 65/92/17 76/102/17 78/105/17 79/98/17
f 66/108/75 62/110/75 86/114/75 75/109/75
f 54/83/76 57/89/76 81/84/76 82/78/76
f 96/56/17 217/64/17 215/115/17 73/116/17 98/117/17 88/118/17 97/119/17 61/112/17
f 86/114/77 97/119/77 88/118/77 89/111/77
f 87/103/78 98/117/78 73/116/78 77/104/78
f 89/111/79 88/118/79 98/117/79 87/103/79
f 56/87/80 59/97/80 92/90/80 93/88/80
f 47/69/81 50/68/81 95/71/81 99/70/81
f 50/68/82 53/81/82 94/82/82 95/71/82
f 77/104/83 73/116/83 215/115/83 203/113/83
f 64/101/17 75/109/17 90/106/17 91/91/17
f 53/81/84 56/87/84 93/88/84 94/82/84
f 75/109/85 86/114/85 89/111/85 90/106/85
f 62/110/86 61/112/86 97/119/86 86/114/86
f 46/46/44 72/66/44 47/69/44 99/70/44 48/73/44 84/74/44 157/77/44 218/65/44
f 126/120/87 125/121/87 103/122/87 100/123/87
f 153/124/88 149/125/88 104/126/88 101/127/88
f 138/128/89 137/129/89 105/11/89 102/10/89
f 137/129/90 136/130/90 108/13/90 105/11/90
f 125/121/91 124/131/91 106/132/91 103/122/91
f 149/125/92 148/133/92 107/134/92 104/126/92
f 136/130/93 135/135/93 111/19/93 108/13/93
f 124/131/94 123/136/94 109/137/94 106/132/94
f 148/133/95 147/138/95 110/139/95 107/134/95
f 146/140/96 145/141/96 118/142/96 113/143/96
f 135/135/83 134/144/83 114/29/83 111/19/83
f 123/136/86 122/145/86 112/146/86 109/137/86
f 147/138/79 146/140/79 113/143/79 110/139/79
f 134/144/97 133/147/97 119/33/97 114/29/97
f 122/145/98 121/148/98 117/149/98 112/146/98
f 129/150/99 140/151/99 131/152/99 132/153/99
f 145/141/17 144/154/17 129/150/17 118/142/17
f 162/155/100 166/156/100 123/136/100 124/131/100
f 133/147/17 132/153/17 130/44/17 119/33/17
f 166/156/70 170/157/70 122/145/70 123/136/70
f 154/158/101 158/159/101 125/121/101 126/120/101
f 170/157/102 176/160/102 121/148/102 122/145/102
f 121/148/17 120/161/17 128/162/17 117/149/17
f 158/159/103 162/155/103 124/131/103 125/121/103
f 176/160/17 188/163/17 120/161/17 121/148/17
f 112/146/104 117/149/104 145/141/104 146/140/104
f 188/163/105 200/164/105 116/165/105 120/161/105
f 144/154/106 143/166/106 140/151/106 129/150/106
f 110/139/78 113/143/78 134/144/78 135/135/78
f 200/164/62 212/167/62 115/168/62 116/165/62
f 101/127/107 104/126/107 137/129/107 138/128/107
f 132/153/108 131/152/108 141/57/108 130/44/108
f 113/143/109 118/142/109 133/147/109 134/144/109
f 104/126/110 107/134/110 136/130/110 137/129/110
f 118/142/17 129/150/17 132/153/17 133/147/17
f 120/161/111 116/165/111 139/169/111 128/162/111
f 107/134/112 110/139/112 135/135/112 136/130/112
f 212/167/17 217/64/17 152/63/17 127/170/17 151/171/17 142/172/17 150/173/17 115/168/17
f 139/169/80 150/173/80 142/172/80 143/166/80
f 140/151/69 151/171/69 127/170/69 131/152/69
f 143/166/57 142/172/57 151/171/57 140/151/57
f 109/137/77 112/146/77 146/140/77 147/138/77
f 100/123/113 103/122/113 149/125/113 153/124/113
f 103/122/114 106/132/114 148/133/114 149/125/114
f 131/152/55 127/170/55 152/63/55 141/57/55
f 117/149/17 128/162/17 144/154/17 145/141/17
f 106/132/115 109/137/115 147/138/115 148/133/115
f 128/162/116 139/169/116 143/166/116 144/154/116
f 116/165/56 115/168/56 150/173/56 139/169/56
f 154/158/44 126/120/44 100/123/44 153/124/44 101/127/44 138/128/44 102/10/44 218/65/44
f 186/174/117 155/175/117 159/176/117 185/177/117
f 216/178/118 156/179/118 160/180/118 211/181/118
f 199/182/119 157/77/119 161/76/119 198/183/119
f 198/183/120 161/76/120 165/79/120 197/184/120
f 185/177/121 159/176/121 163/185/121 184/186/121
f 211/181/122 160/180/122 164/187/122 210/188/122
f 197/184/123 165/79/123 169/85/123 196/189/123
f 184/186/124 163/185/124 167/190/124 183/191/124
f 210/188/125 164/187/125 168/192/125 209/193/125
f 208/194/126 172/195/126 178/196/126 207/197/126
f 196/189/40 169/85/40 173/95/40 195/198/40
f 183/191/43 167/190/43 171/199/43 182/200/43
f 209/193/36 168/192/36 172/195/36 208/194/36
f 195/198/127 173/95/127 179/99/127 194/201/127
f 182/200/128 171/199/128 177/202/128 181/203/128
f 190/204/129 193/205/129 192/206/129 202/207/129
f 207/197/17 178/196/17 190/204/17 206/208/17
f 162/155/130 184/186/130 183/191/130 166/156/130
f 194/201/17 179/99/17 191/107/17 193/205/17
f 166/156/27 183/191/27 182/200/27 170/157/27
f 154/158/131 186/174/131 185/177/131 158/159/131
f 170/157/132 182/200/132 181/203/132 176/160/132
f 181/203/17 177/202/17 189/209/17 180/210/17
f 158/159/133 185/177/133 184/186/133 162/155/133
f 176/160/17 181/203/17 180/210/17 188/163/17
f 171/199/134 208/194/134 207/197/134 177/202/134
f 188/163/135 180/210/135 175/211/135 200/164/135
f 206/208/136 190/204/136 202/207/136 205/212/136
f 168/192/35 196/189/35 195/198/35 172/195/35
f 200/164/19 175/211/19 174/213/19 212/167/19
f 156/179/137 199/182/137 198/183/137 160/180/137
f 193/205/138 191/107/138 203/113/138 192/206/138
f 172/195/139 195/198/139 194/201/139 178/196/139
f 160/180/140 198/183/140 197/184/140 164/187/140
f 178/196/17 194/201/17 193/205/17 190/204/17
f 180/210/141 189/209/141 201/214/141 175/211/141
f 164/187/142 197/184/142 196/189/142 168/192/142
f 212/167/17 174/213/17 213/215/17 204/216/17 214/217/17 187/218/17 215/115/17 217/64/17
f 201/214/37 205/212/37 204/216/37 213/215/37
f 202/207/26 192/206/26 187/218/26 214/217/26
f 205/212/13 202/207/13 214/217/13 204/216/13
f 167/190/34 209/193/34 208/194/34 171/199/34
f 155/175/143 216/178/143 211/181/143 159/176/143
f 159/176/144 211/181/144 210/188/144 163/185/144
f 192/206/11 203/113/11 215/115/11 187/218/11
f 177/202/17 207/197/17 206/208/17 189/209/17
f 163/185/145 210/188/145 209/193/145 167/190/145
f 189/209/146 206/208/146 205/212/146 201/214/146
f 175/211/12 201/214/12 213/215/12 174/213/12
f 154/158/44 218/65/44 157/77/44 199/182/44 156/179/44 216/178/44 155/175/44 186/174/44
